<?xml version="1.0" encoding="UTF-8"?>
<svg width="40px" height="40px" viewBox="0 0 40 40" version="1.1" xmlns="http://www.w3.org/2000/svg" xmlns:xlink="http://www.w3.org/1999/xlink">
    <!-- Generator: Sketch 48.1 (47250) - http://www.bohemiancoding.com/sketch -->
    <title>Group 3</title>
    <desc>Created with Sketch.</desc>
    <defs></defs>
    <g id="Header" stroke="none" stroke-width="1" fill="none" fill-rule="evenodd" transform="translate(-1371.000000, -955.000000)">
        <g id="Group-3" transform="translate(1372.000000, 956.000000)">
            <path d="M17.8174286,23.364 L17.8174286,22.272 C17.8174286,21.414 17.8694286,20.27 19.2994286,18.944 L20.5734286,17.748 C21.4574286,16.916 22.3674286,15.876 22.3674286,14.238 C22.3674286,12.314 20.9894286,11.066 19.1174286,11.066 C17.0894286,11.066 15.6594286,12.418 15.6594286,14.81 C15.6594286,15.174 15.6594286,15.46 15.8154286,16.188 L13.4494286,15.902 C13.3194286,15.226 13.3194286,14.784 13.3194286,14.498 C13.3194286,11.326 15.2694286,9.038 19.1174286,9.038 C22.6534286,9.038 24.8374286,10.91 24.8374286,14.238 C24.8374286,16.084 23.6154286,17.644 22.3934286,18.788 L21.0934286,20.01 C20.3134286,20.738 20.0274286,21.388 20.0274286,22.636 L20.0274286,23.364 L17.8174286,23.364 Z M17.5834286,28.2 L17.5834286,25.444 L20.3134286,25.444 L20.3134286,28.2 L17.5834286,28.2 Z" id="?" fill="#FFFFFF"></path>
            <circle id="Oval-2" stroke="#FFFFFF" stroke-width="1.3" cx="19" cy="19" r="19"></circle>
        </g>
    </g>
</svg>