<?xml version="1.0" encoding="UTF-8"?>
<svg width="100px" height="101px" viewBox="0 0 100 101" version="1.1" xmlns="http://www.w3.org/2000/svg" xmlns:xlink="http://www.w3.org/1999/xlink">
    <!-- Generator: Sketch 48.2 (47327) - http://www.bohemiancoding.com/sketch -->
    <title>logo</title>
    <desc>Created with Sketch.</desc>
    <defs>
        <polygon id="path-1" points="0 0 0 100.68 99.9951023 100.68 99.9951023 0"></polygon>
    </defs>
    <g id="Welcome" stroke="none" stroke-width="1" fill="none" fill-rule="evenodd">
        <g id="logo">
            <g id="Page-1">
                <mask id="mask-2" fill="white">
                    <use xlink:href="#path-1"></use>
                </mask>
                <g id="Clip-2"></g>
                <path d="M35.863069,48.6240893 C35.5921132,49.7762861 35.3277127,50.9153648 35.0436461,52.0500709 C35.02398,52.1287788 34.8513549,52.2184184 34.7486539,52.2206047 C33.9729337,52.2337227 33.1950283,52.255586 32.419308,52.2227911 C30.3543625,52.1353378 28.7504789,52.9814481 27.4787347,54.5621658 C26.1567325,56.2084735 25.291422,58.0996503 24.5506638,60.0542307 C23.200255,63.6135784 22.2759461,67.2975471 21.4455976,71.0011927 C20.9626844,73.1656609 20.4360687,75.3235701 20.2918503,77.5492557 C20.1585575,79.5278857 20.1476319,81.4977704 20.7004691,83.4239285 C20.8315768,83.8830581 21.006387,84.3356288 21.211789,84.7685224 C22.6561583,87.7703556 25.8988875,87.759424 27.6797664,86.6487675 C28.6871102,86.0212904 29.4519048,85.1642484 30.105258,84.1935172 C31.1934515,82.5756319 31.9429502,80.7915853 32.607229,78.9703712 C33.8003086,75.6952465 34.5825842,72.3108053 35.3583045,68.9198051 C38.3410036,55.8958281 41.3411836,42.8762237 44.3326232,29.8544331 C44.9160523,27.3182885 45.4230018,24.7646532 46.0894657,22.2525583 C47.0421813,18.6582292 48.4799952,15.2584837 50.5230895,12.1342159 C54.2072145,6.50659851 59.3663005,2.9428781 65.8408333,1.27689346 C70.8972184,-0.0239738078 76.0344532,-0.380345849 81.2044649,0.437342148 C87.1633076,1.38183737 92.121362,4.09944748 95.7158967,9.05586109 C98.0539832,12.2828864 99.4022068,15.9209421 99.8151959,19.8628979 C100.735135,28.6913047 98.1217221,36.37626 92.0973256,42.8784101 C87.735811,47.5855819 82.286103,50.3119373 76.0191573,51.4925563 C73.3336356,51.9954126 70.6240775,52.2227911 67.8948532,52.2271637 C66.6755521,52.2293501 65.4562509,52.2271637 64.1713959,52.2271637 C64.4510922,50.9962591 64.7220481,49.8068947 64.9973741,48.5869217 C65.9850518,48.5869217 66.9443227,48.5978534 67.9057788,48.582549 C68.3209531,48.5781764 68.7448678,48.5606857 69.1556718,48.4885368 C70.2110884,48.3026986 71.078584,47.7517431 71.8346381,47.012763 C72.9927557,45.8824296 73.785957,44.5072271 74.4677168,43.0642482 C75.739461,40.3794331 76.6004012,37.5481338 77.3520851,34.6840394 C77.8393685,32.8234713 78.2982453,30.9563442 78.7177898,29.0804717 C79.2553312,26.662389 79.7753915,24.2377473 79.8037982,21.7409567 C79.8234643,20.1689843 79.7469849,18.6079436 79.2749973,17.0950022 C79.1395194,16.6599222 78.9712646,16.2314012 78.7614923,15.8291162 C77.5378209,13.4678781 74.8064115,12.6633081 72.4792507,13.9663617 C71.4303895,14.5544849 70.6524841,15.4224585 69.9838351,16.3975624 C68.9568252,17.8908269 68.2313628,19.5371345 67.5976759,21.2249825 C66.3718193,24.4869891 65.5589519,27.8648713 64.7810465,31.2558716 C61.6257224,45.0385056 58.4398065,58.8123943 55.2910377,72.5950284 C54.5721308,75.7477185 53.8204469,78.8851042 52.6601442,81.9109871 C51.3578082,85.30636 49.6730749,88.4830997 47.3218777,91.2816041 C43.6705296,95.6236585 38.998727,98.2822377 33.5293528,99.5765459 C28.8313286,100.687202 24.0721209,101.00422 19.2845065,100.322085 C13.277591,99.4628567 8.22557616,96.8480042 4.51959989,91.9221992 C2.10066373,88.7039192 0.743699544,85.0440002 0.22800945,81.0714358 C-1.15080601,70.4152558 3.77010115,59.2277973 13.7342826,53.0754604 C17.0731575,51.0137497 20.7485419,49.8571803 24.5987366,49.1903492 C28.2631955,48.5563131 31.9582461,48.5628721 35.657667,48.589108 C35.7188506,48.589108 35.7756639,48.608785 35.863069,48.6240893" id="Fill-1" fill="#FFFFFF" mask="url(#mask-2)"></path>
            </g>
        </g>
    </g>
</svg>